<svg width="21" height="23" viewBox="0 0 21 23" fill="none" xmlns="http://www.w3.org/2000/svg">
<path d="M16.8732 22.4103C15.9903 22.4103 15.2407 22.1015 14.6245 21.4841C14.0084 20.8666 13.7003 20.1168 13.7003 19.2348C13.7003 19.1168 13.7411 18.8302 13.8227 18.3749L5.43478 13.437C5.15053 13.7319 4.8128 13.9629 4.4216 14.13C4.03041 14.2971 3.61129 14.3806 3.16427 14.3806C2.28535 14.3806 1.53825 14.0706 0.922949 13.4506C0.30765 12.8306 0 12.0821 0 11.2051C0 10.3282 0.30765 9.5797 0.922949 8.95968C1.53825 8.33966 2.28535 8.02965 3.16427 8.02965C3.61129 8.02965 4.03041 8.1132 4.4216 8.28029C4.8128 8.44739 5.15053 8.67837 5.43478 8.97324L13.8227 4.04653C13.7759 3.90145 13.7438 3.75932 13.7263 3.62014C13.709 3.48096 13.7003 3.33274 13.7003 3.17547C13.7003 2.29341 14.0093 1.54365 14.6271 0.926192C15.2452 0.30873 15.9956 0 16.8785 0C17.7613 0 18.5108 0.309026 19.1269 0.927077C19.7431 1.54493 20.0513 2.29528 20.0513 3.17813C20.0513 4.06098 19.7425 4.81054 19.1251 5.42682C18.5076 6.0429 17.7579 6.35095 16.8758 6.35095C16.4266 6.35095 16.0089 6.26553 15.6226 6.09471C15.2361 5.92388 14.9008 5.69103 14.6165 5.39615L6.22858 10.3341C6.27536 10.4794 6.3075 10.6215 6.325 10.7605C6.3423 10.8996 6.35095 11.0479 6.35095 11.2051C6.35095 11.3624 6.3423 11.5106 6.325 11.6498C6.3075 11.7888 6.27536 11.9309 6.22858 12.0762L14.6165 17.0141C14.9008 16.7192 15.2361 16.4864 15.6226 16.3155C16.0089 16.1447 16.4266 16.0593 16.8758 16.0593C17.7579 16.0593 18.5076 16.3682 19.1251 16.9861C19.7425 17.6041 20.0513 18.3546 20.0513 19.2374C20.0513 20.1203 19.7423 20.8697 19.1242 21.4858C18.5063 22.1021 17.756 22.4103 16.8732 22.4103Z" fill="#027BF9"/>
</svg>
